<svg width="195" height="27" viewBox="0 0 195 27" fill="none" xmlns="http://www.w3.org/2000/svg">
<path d="M5.16 21H0.82V1.4H5.16V9.044L12.692 1.4H18.348L9.836 10.08L18.908 21H13.196L6.56 12.992L5.16 14.42V21ZM20.0328 18.732C20.0328 18.06 20.3035 17.5 20.8448 17.052C21.3861 16.5853 21.9928 16.352 22.6648 16.352C23.0008 16.352 23.3741 16.436 23.7848 16.604C24.1768 16.7907 24.5221 17.08 24.8208 17.472C25.1008 17.8827 25.2408 18.3027 25.2408 18.732C25.2408 19.3853 24.9701 19.9547 24.4288 20.44C23.9061 20.9253 23.3181 21.168 22.6648 21.168C21.9555 21.168 21.3395 20.9347 20.8168 20.468C20.2941 20.0013 20.0328 19.4227 20.0328 18.732ZM38.5741 21H34.2341V1.4H49.0741V5.46H38.5741V9.744H48.3741V13.804H38.5741V21ZM53.0533 11.312L51.1213 8.372C51.8307 7.60667 52.7733 7.04667 53.9493 6.692C55.144 6.31867 56.3387 6.132 57.5333 6.132C59.4187 6.132 60.884 6.664 61.9293 7.728C62.9747 8.792 63.4973 10.276 63.4973 12.18V21H59.4373V19.684C59.0267 20.1507 58.4387 20.5147 57.6733 20.776C56.9267 21.0373 56.208 21.168 55.5173 21.168C53.9867 21.168 52.7173 20.748 51.7093 19.908C50.7013 19.068 50.1973 17.9013 50.1973 16.408C50.1973 15.2693 50.552 14.3267 51.2613 13.58C51.9707 12.8333 52.792 12.32 53.7253 12.04C54.6773 11.76 55.704 11.62 56.8053 11.62C57.9067 11.62 58.784 11.7413 59.4373 11.984C59.4747 11.2747 59.288 10.752 58.8773 10.416C58.448 10.08 57.8507 9.912 57.0853 9.912C55.7227 9.912 54.3787 10.3787 53.0533 11.312ZM56.3573 17.668C56.9733 17.668 57.5707 17.5187 58.1493 17.22C58.7467 16.9213 59.176 16.52 59.4373 16.016V15.344C58.784 15.1013 58.0467 14.98 57.2253 14.98C56.5907 14.98 56.0493 15.036 55.6013 15.148C54.7987 15.4093 54.3973 15.8293 54.3973 16.408C54.3973 16.856 54.5933 17.1827 54.9853 17.388C55.396 17.5747 55.8533 17.668 56.3573 17.668ZM86.6877 11.312V21H82.6277V12.46C82.6277 10.78 82.0024 9.94 80.7517 9.94C80.2104 9.94 79.725 10.108 79.2957 10.444C78.885 10.7613 78.5677 11.1813 78.3437 11.704V21H74.2837V11.788C74.2837 11.2467 74.1344 10.808 73.8357 10.472C73.537 10.1173 73.117 9.94 72.5757 9.94C71.9784 9.94 71.4464 10.108 70.9797 10.444C70.513 10.7613 70.1864 11.1907 69.9997 11.732V21H65.9397V6.44H69.9997V7.42C70.709 6.58 71.8757 6.16 73.4997 6.16C75.0117 6.16 76.2624 6.68267 77.2517 7.728C78.241 6.68267 79.5104 6.16 81.0597 6.16C82.8144 6.16 84.1864 6.58933 85.1757 7.448C86.1837 8.30667 86.6877 9.59467 86.6877 11.312ZM93.3845 21H89.3245V6.44H93.3845V21ZM89.0725 2.576C89.0725 1.97867 89.3058 1.49333 89.7725 1.12C90.2392 0.746666 90.7712 0.559999 91.3685 0.559999C91.9845 0.559999 92.5165 0.746666 92.9645 1.12C93.4125 1.49333 93.6365 1.97867 93.6365 2.576C93.6365 3.192 93.4125 3.696 92.9645 4.088C92.5352 4.46133 92.0032 4.648 91.3685 4.648C90.7338 4.648 90.1925 4.46133 89.7445 4.088C89.2965 3.71467 89.0725 3.21067 89.0725 2.576ZM100.215 21H96.1545V0.559999H100.215V21ZM113.16 6.44H117.5L109.296 26.6H104.9L107.896 19.768L100.924 6.44H105.656L109.884 14.896L113.16 6.44ZM142.896 21H138.556V13.16H129.848V21H125.508V1.4H129.848V9.1H138.556V1.4H142.896V21ZM145.275 13.692C145.275 11.452 146.031 9.632 147.543 8.232C149.055 6.832 150.922 6.132 153.143 6.132C155.402 6.132 157.287 6.84133 158.799 8.26C160.311 9.66 161.067 11.4707 161.067 13.692C161.067 15.932 160.302 17.752 158.771 19.152C157.24 20.5333 155.364 21.224 153.143 21.224C150.922 21.224 149.055 20.5147 147.543 19.096C146.031 17.6773 145.275 15.876 145.275 13.692ZM149.475 13.692C149.475 14.756 149.82 15.652 150.511 16.38C151.22 17.0893 152.098 17.444 153.143 17.444C154.263 17.444 155.159 17.0987 155.831 16.408C156.522 15.7173 156.867 14.812 156.867 13.692C156.867 12.5907 156.522 11.6853 155.831 10.976C155.14 10.2667 154.244 9.912 153.143 9.912C152.042 9.912 151.155 10.2667 150.483 10.976C149.811 11.6853 149.475 12.5907 149.475 13.692ZM164.525 10.22H161.753V6.44H164.525V3.052H168.585V6.44H173.037V10.22H168.585V14.952C168.585 15.288 168.595 15.5773 168.613 15.82C168.651 16.044 168.707 16.296 168.781 16.576C168.875 16.8373 169.024 17.0427 169.229 17.192C169.453 17.3227 169.733 17.388 170.069 17.388C170.928 17.388 171.759 17.0707 172.561 16.436L174.241 19.32C173.084 20.552 171.563 21.168 169.677 21.168C168.072 21.168 166.812 20.7293 165.897 19.852C164.983 18.9747 164.525 17.7427 164.525 16.156V10.22ZM185.772 15.848L188.208 18.312C186.658 20.2533 184.568 21.224 181.936 21.224C179.602 21.224 177.708 20.5333 176.252 19.152C174.796 17.7707 174.068 15.9507 174.068 13.692C174.068 11.396 174.758 9.56667 176.14 8.204C177.54 6.82267 179.369 6.132 181.628 6.132C183.662 6.132 185.324 6.748 186.612 7.98C187.918 9.212 188.572 10.8267 188.572 12.824C188.572 13.3467 188.497 14.1307 188.348 15.176H178.324C178.51 15.9413 178.949 16.5107 179.64 16.884C180.33 17.2573 181.114 17.444 181.992 17.444C183.634 17.444 184.894 16.912 185.772 15.848ZM181.488 9.772C179.938 9.772 178.912 10.4067 178.408 11.676H184.372C184.036 10.4067 183.074 9.772 181.488 9.772ZM194.441 21H190.381V0.559999H194.441V21Z" fill="#011627"/>
</svg>
